<svg id="Layer_1" height="512" viewBox="0 0 512 512" width="512" xmlns="http://www.w3.org/2000/svg" data-name="Layer 1"><path d="m475.21 102.63v280.17l-145.13 72.61-.28-.15.21-279.99z" fill="#a5e2fb"/><path d="m329.8 455.26-.02 29.13-150.34-79.11.02-28.94.18-.09z" fill="#4689d3"/><path d="m179.64 68.52-.02 29.03-.18-.09-142.65 71.4v280.02l142.67-72.54-.02 28.94-139.38 70.87a20 20 0 0 1 -29.06-17.83v-293.04a20 20 0 0 1 11.05-17.88z" fill="#5fa8ed"/><path d="m501 93.26v293.12a20 20 0 0 1 -11.05 17.88l-160.17 80.13.02-29.13.28.15 145.13-72.61v-280.17l-145.2 72.64.02-28.85 142.02-71.05a20 20 0 0 1 28.95 17.89z" fill="#5fa8ed"/><path d="m179.64 68.52-.02 29.03 150.21 77.81.18-.09.02-28.85z" fill="#4689d3"/><path d="m329.83 175.36-150.21-77.81-.16 278.79.18-.09 150.16 79.01.21-279.99z" fill="#86b8c4"/><path d="m179.62 97.55-.16 278.79-142.67 72.54v-280.02l142.65-71.4z" fill="#a5e2fb"/><path d="m315.73 88.43c-2.1-32.25-27.87-60.82-63.37-60.82-30.31 0-53.52 20.83-60.97 47a65.983 65.983 0 0 0 -2.4 13.82 60.484 60.484 0 0 0 .77 14.38 69.7 69.7 0 0 0 12.65 29.14l49.95 66.59 49.9-66.51.06-.08a65.408 65.408 0 0 0 13.41-43.52z" fill="#f58387"/><path d="m456.11 190.94a38.651 38.651 0 0 1 -7.9 25.63l-29.43 39.22-29.42-39.22a39.2 39.2 0 0 1 -7.9-25.63c1.24-19 16.42-35.82 37.32-35.82s36.09 16.82 37.33 35.82z" fill="#f58387"/><path d="m321.45 295.45a38.556 38.556 0 0 1 -7.89 25.63l-29.43 39.23-29.42-39.23a39.107 39.107 0 0 1 -7.9-25.63c1.24-18.99 16.42-35.82 37.32-35.82s36.09 16.83 37.32 35.82z" fill="#f58387"/><path d="m252.1 54.31a37.205 37.205 0 1 1 -37.31 37.2 37.258 37.258 0 0 1 37.31-37.2z" fill="#c96b72"/><path d="m283.98 277.31a19.45 19.45 0 1 1 -19.5 19.45 19.478 19.478 0 0 1 19.5-19.45z" fill="#c96b72"/><path d="m417.56 172.8a19.445 19.445 0 1 1 -19.51 19.45 19.478 19.478 0 0 1 19.51-19.45z" fill="#c96b72"/><path d="m37 168.86v280.02l30-15.253v-279.791z" fill="#85b6c6"/><path d="m142.96 234.71a47.119 47.119 0 0 1 -9.65 31.33l-35.96 47.93-35.96-47.93c-6.63-9.06-10.41-20.01-9.66-31.33 1.52-23.21 20.07-43.78 45.62-43.78s44.1 20.57 45.61 43.78z" fill="#f58387"/><path d="m96.93 212.54a23.77 23.77 0 1 1 -23.85 23.77 23.808 23.808 0 0 1 23.85-23.77z" fill="#c96b72"/><g fill="#284268"><path d="m494.667 71.141a25.832 25.832 0 0 0 -25.3-1.134l-139.29 69.684-19.021-9.853a71.54 71.54 0 0 0 10.665-41.8 72.261 72.261 0 0 0 -20.9-46.348 68.5 68.5 0 0 0 -96.912 0 72.044 72.044 0 0 0 -15.969 24.376l-5.54-2.873a6 6 0 0 0 -5.445-.037l-157.593 78.877a25.857 25.857 0 0 0 -14.362 23.25v293.034a26 26 0 0 0 37.784 23.177l136.606-69.455 147.6 77.664a5.994 5.994 0 0 0 5.479.056l160.169-80.13a25.858 25.858 0 0 0 14.362-23.253v-293.117a25.832 25.832 0 0 0 -12.333-22.118zm-299.685 17.676a60.271 60.271 0 0 1 17.423-38.656 56.5 56.5 0 0 1 79.918 0 60.229 60.229 0 0 1 17.42 38.6 59.516 59.516 0 0 1 -12.22 39.581l-45.158 60.192-45.117-60.134c-8.811-12.044-13.168-26.1-12.266-39.583zm-21.544 312.783-136.093 69.2a14 14 0 0 1 -20.345-12.483v-293.034a13.925 13.925 0 0 1 7.733-12.52l148.9-74.526-.01 15.425-139.523 69.832a6 6 0 0 0 -3.315 5.365v280.02a6 6 0 0 0 8.72 5.349l133.939-68.1zm150.349 72.86-138.349-72.8.01-15.578 138.35 72.8zm.144-194.114a43.528 43.528 0 0 0 -39.8-26.712c-22.769 0-41.792 18.2-43.313 41.514a45.186 45.186 0 0 0 9.09 29.537l29.423 39.221a6 6 0 0 0 9.6 0l29.384-39.171a44.462 44.462 0 0 0 5.587-9.572l-.1 130.166-138.353-72.8.1-169.655a6 6 0 0 0 -12-.008l-.1 169.8-130.66 66.434v-266.534l130.826-65.481-.027 45.782a6 6 0 0 0 12 .008l.025-41.578a77.568 77.568 0 0 0 11.992 24.25l49.96 66.59a6 6 0 0 0 9.6 0l31.149-41.519 35.692 18.488zm-15.174 37.137-24.623 32.824-24.642-32.848a33.123 33.123 0 0 1 -6.691-21.615c.969-14.849 12.954-30.21 31.333-30.21s30.366 15.366 31.331 30.158a32.616 32.616 0 0 1 -6.708 21.691zm15.259-151.883-28.4-14.712 8.391-11.183 20.021 10.371zm11.99 13.384 133.205-66.64v266.748l-133.4 66.74zm158.994 207.392a13.925 13.925 0 0 1 -7.736 12.521l-151.478 75.782.012-15.425 142.1-71.089a6 6 0 0 0 3.315-5.366v-280.17a6 6 0 0 0 -8.685-5.366l-136.51 68.295.011-15.425 138.709-69.4a14 14 0 0 1 20.262 12.526z"/><path d="m203 162a6 6 0 0 0 -6 6v2a6 6 0 0 0 12 0v-2a6 6 0 0 0 -6-6z"/><path d="m203 190a6 6 0 0 0 -6 6v92a6 6 0 0 0 12 0v-92a6 6 0 0 0 -6-6z"/><path d="m252.1 134.722a43.208 43.208 0 1 0 -43.319-43.208 43.312 43.312 0 0 0 43.319 43.208zm0-74.416a31.208 31.208 0 1 1 -31.319 31.208 31.3 31.3 0 0 1 31.319-31.208z"/><path d="m133.42 199.881a50.992 50.992 0 0 0 -72.141 0 53.687 53.687 0 0 0 -15.531 34.433c-.806 12.121 3.029 24.644 10.84 35.324l35.961 47.931a6 6 0 0 0 9.6 0l35.923-47.881a52.928 52.928 0 0 0 -4.651-69.807zm-4.91 62.556-31.161 41.534-31.119-41.471c-6.105-8.349-9.127-18.075-8.508-27.393 1.223-18.764 16.381-38.171 39.627-38.171s38.4 19.407 39.624 38.118a41.189 41.189 0 0 1 -8.463 27.383z"/><path d="m96.925 206.542a29.771 29.771 0 1 0 29.843 29.771 29.84 29.84 0 0 0 -29.843-29.771zm0 47.542a17.771 17.771 0 1 1 17.843-17.771 17.827 17.827 0 0 1 -17.843 17.771z"/><path d="m283.982 271.314a25.45 25.45 0 1 0 25.508 25.45 25.507 25.507 0 0 0 -25.508-25.45zm0 38.9a13.45 13.45 0 1 1 13.508-13.449 13.493 13.493 0 0 1 -13.508 13.448z"/><path d="m418.784 149.116c-22.769 0-41.793 18.2-43.312 41.515a45.191 45.191 0 0 0 9.09 29.536l29.422 39.221a6 6 0 0 0 9.6 0l29.386-39.171a44.611 44.611 0 0 0 9.123-29.667c-1.515-23.234-20.538-41.434-43.309-41.434zm24.624 63.849-24.624 32.824-24.641-32.847a33.149 33.149 0 0 1 -6.692-21.616c.968-14.85 12.953-30.21 31.333-30.21s30.366 15.363 31.331 30.161a32.6 32.6 0 0 1 -6.707 21.688z"/><path d="m417.56 166.8a25.45 25.45 0 1 0 25.506 25.449 25.507 25.507 0 0 0 -25.506-25.449zm0 38.9a13.45 13.45 0 1 1 13.506-13.45 13.494 13.494 0 0 1 -13.506 13.45z"/></g></svg>