<svg height="512pt" viewBox="0 0 512 512" width="512pt" xmlns="http://www.w3.org/2000/svg"><path d="m353.101562 476.691406c-39.035156 0-52.964843-22.757812-52.964843-61.792968v-8.828126h-88.273438v8.828126c0 39.035156-13.929687 61.792968-52.964843 61.792968l17.652343 17.652344h167.726563zm0 0" fill="#afb6bb"/><path d="m512 344.277344h-512v-316.242188c0-15.480468 12.554688-28.035156 28.035156-28.035156h455.9375c15.472656 0 28.027344 12.554688 28.027344 28.035156zm0 0" fill="#28384c"/><path d="m0 308.964844v77.894531c0 15.484375 12.554688 28.039063 28.035156 28.039063h455.929688c15.480468 0 28.035156-12.554688 28.035156-28.039063v-77.894531zm0 0" fill="#e7eced"/><path d="m238.34375 344.277344h35.3125v35.308594h-35.3125zm0 0" fill="#28384c"/><path d="m388.414062 512h-264.828124v-17.671875c0-9.738281 7.902343-17.636719 17.636718-17.636719h229.554688c9.734375 0 17.636718 7.898438 17.636718 17.636719zm0 0" fill="#e7eced"/><path d="m61.792969 194.207031c-2.257813 0-4.519531-.867187-6.242188-2.585937l-26.480469-26.484375c-3.453124-3.449219-3.453124-9.03125 0-12.480469l26.480469-26.484375c3.445313-3.449219 9.039063-3.449219 12.484375 0 3.449219 3.453125 3.449219 9.03125 0 12.484375l-20.242187 20.242188 20.242187 20.238281c3.449219 3.453125 3.449219 9.03125 0 12.484375-1.722656 1.71875-3.980468 2.585937-6.242187 2.585937zm0 0" fill="#fff"/><path d="m450.207031 194.207031c-2.261719 0-4.519531-.867187-6.242187-2.585937-3.449219-3.453125-3.449219-9.03125 0-12.484375l20.242187-20.238281-20.242187-20.242188c-3.449219-3.453125-3.449219-9.03125 0-12.484375 3.445312-3.449219 9.039062-3.449219 12.484375 0l26.480469 26.484375c3.453124 3.449219 3.453124 9.03125 0 12.480469l-26.480469 26.484375c-1.722657 1.71875-3.984375 2.585937-6.242188 2.585937zm0 0" fill="#fff"/><path d="m132.414062 61.792969h52.964844v52.964843h-52.964844zm0 0" fill="#dd352e"/><path d="m229.515625 61.792969h52.96875v52.964843h-52.96875zm0 0" fill="#ebba16"/><path d="m326.621094 61.792969h52.964844v52.964843h-52.964844zm0 0" fill="#57abc1"/><path d="m132.414062 158.898438h52.964844v52.964843h-52.964844zm0 0" fill="#25ae88"/><path d="m229.515625 158.898438h52.96875v52.964843h-52.96875zm0 0" fill="#366db6"/><path d="m326.621094 158.898438h52.964844v52.964843h-52.964844zm0 0" fill="#cb465f"/><path d="m185.378906 256h-52.964844c-4.875 0-8.828124-3.953125-8.828124-8.828125 0-4.871094 3.953124-8.828125 8.828124-8.828125h52.964844c4.875 0 8.828125 3.957031 8.828125 8.828125 0 4.875-3.953125 8.828125-8.828125 8.828125zm0 0" fill="#fc3952"/><path d="m282.484375 256h-52.96875c-4.871094 0-8.824219-3.953125-8.824219-8.828125 0-4.871094 3.953125-8.828125 8.824219-8.828125h52.96875c4.871094 0 8.824219 3.957031 8.824219 8.828125 0 4.875-3.953125 8.828125-8.824219 8.828125zm0 0" fill="#75348b"/><path d="m379.585938 256h-52.964844c-4.875 0-8.828125-3.953125-8.828125-8.828125 0-4.871094 3.953125-8.828125 8.828125-8.828125h52.964844c4.875 0 8.828124 3.957031 8.828124 8.828125 0 4.875-3.953124 8.828125-8.828124 8.828125zm0 0" fill="#ed8a19"/></svg>