<svg height="512pt" viewBox="0 -30 512.001 512" width="512pt" xmlns="http://www.w3.org/2000/svg"><path d="m179.554688 386.308594h101.160156v34.480468h-101.160156zm0 0" fill="#c5ccd3"/><path d="m133.101562 253.980469c-2.996093 0-5.445312-2.453125-5.445312-5.445313v-159.140625h-110.109375c-5.527344 0-10.046875 4.523438-10.046875 10.046875v276.820313c0 5.527343 4.519531 10.046875 10.046875 10.046875h425.175781c5.527344 0 10.046875-4.519532 10.046875-10.046875v-122.28125zm0 0" fill="#9ea7af"/><path d="m349.902344 438.988281c0 2.761719-2.261719 5.019531-5.023438 5.019531h-229.484375c-2.765625 0-5.027343-2.257812-5.027343-5.019531v-13.175781c0-2.765625 2.261718-5.023438 5.027343-5.023438h229.484375c2.761719 0 5.019532 2.261719 5.019532 5.023438v13.175781zm0 0" fill="#9ea7af"/><path d="m133.101562 253.980469c-2.996093 0-5.445312-2.453125-5.445312-5.445313v-139.464844h-94.460938c-2.761718 0-5.023437 2.261719-5.023437 5.023438v228.304688c0 2.761718 2.261719 5.019531 5.023437 5.019531h393.878907c2.761719 0 5.023437-2.257813 5.023437-5.019531v-88.417969zm0 0" fill="#fff"/><path d="m127.65625 137.308594h-70.394531c-1.660157 0-3.015625 1.355468-3.015625 3.015625v66.449219c0 1.65625 1.355468 3.011718 3.015625 3.011718h70.394531zm0 0" fill="#0291c9"/><path d="m344.152344 253.980469v63.273437c0 1.65625 1.359375 3.015625 3.015625 3.015625h57.609375c1.65625 0 3.011718-1.359375 3.011718-3.015625v-63.273437zm0 0" fill="#f7931e"/><path d="m170.476562 253.980469v63.273437c0 1.65625 1.355469 3.015625 3.011719 3.015625h145.996094c1.660156 0 3.015625-1.359375 3.015625-3.015625v-63.273437zm0 0" fill="#d5e962"/><path d="m409.078125 73.773438-11.773437-9.101563c-2.1875-1.691406-2.1875-4.457031 0-6.144531l11.773437-9.105469c1.714844-1.324219 2.992187-3.832031 3.308594-6.175781h-279.285157c-2.996093 0-5.445312 2.449218-5.445312 5.445312v32.105469h284.8125c-.074219-2.558594-1.46875-5.539063-3.390625-7.023437zm0 0" fill="#ef5050"/><path d="m190.828125 43.246094h-57.726563c-2.996093 0-5.445312 2.453125-5.445312 5.445312v32.105469h63.171875zm0 0" fill="#c0272d"/><path d="m470.40625 99.03125c-2.742188-.339844-6.378906 1.164062-8.082031 3.339844l-9.144531 11.695312c-1.703126 2.175782-4.488282 2.175782-6.191407 0l-9.148437-11.695312c-1.703125-2.175782-5.335938-3.679688-8.078125-3.339844l-14.824219 1.84375c-2.742188.339844-4.703125-1.621094-4.359375-4.363281l1.851563-14.679688c.039062-.332031.050781-.679687.042968-1.035156h-284.816406v167.738281c0 2.992188 2.449219 5.445313 5.445312 5.445313h337.652344c2.996094 0 5.445313-2.453125 5.445313-5.445313v-148.78125zm0 0" fill="#c7fffd"/><path d="m257.597656 212.300781-24.300781-18.785156c-2.371094-1.832031-4.003906-5.761719-3.628906-8.734375l3.816406-30.328125c.375-2.972656-1.753906-5.101563-4.726563-4.730469l-30.566406 3.800782c-2.972656.367187-6.914062-1.261719-8.761718-3.617188l-18.886719-24.148438c-1.84375-2.355468-4.863281-2.355468-6.707031 0l-18.886719 24.148438c-1.847657 2.355469-5.789063 3.984375-8.761719 3.617188l-8.535156-1.0625v96.074218c0 2.996094 2.453125 5.445313 5.449218 5.445313h97.507813l-.945313-7.492188c-.375-2.972656 1.261719-6.902343 3.632813-8.738281l24.296875-18.785156c2.371094-1.832032 2.375-4.832032.003906-6.664063zm0 0" fill="#f7931e"/><path d="m441.347656 196.824219c0 7.820312-6.339844 14.160156-14.160156 14.160156h-117.632812c-7.824219 0-14.160157-6.339844-14.160157-14.160156 0-7.820313 6.335938-14.160157 14.160157-14.160157h117.632812c7.820312 0 14.160156 6.339844 14.160156 14.160157zm0 0" fill="#0291c9"/><path d="m446.988281 9.132812c1.703125-2.175781 4.488281-2.175781 6.191407 0l9.144531 11.695313c1.703125 2.175781 5.339843 3.675781 8.082031 3.335937l14.820312-1.84375c2.742188-.339843 4.703126 1.625 4.359376 4.363282l-1.847657 14.679687c-.34375 2.742188 1.160157 6.367188 3.347657 8.058594l11.773437 9.105469c2.1875 1.6875 2.1875 4.453125 0 6.144531l-11.773437 9.105469c-2.1875 1.6875-3.691407 5.3125-3.347657 8.054687l1.847657 14.679688c.34375 2.742187-1.617188 4.707031-4.359376 4.367187l-14.820312-1.84375c-2.742188-.34375-6.378906 1.160156-8.082031 3.335938l-9.144531 11.695312c-1.703126 2.175782-4.488282 2.175782-6.191407 0l-9.148437-11.695312c-1.703125-2.175782-5.335938-3.679688-8.078125-3.335938l-14.824219 1.839844c-2.742188.34375-4.703125-1.621094-4.359375-4.363281l1.851563-14.679688c.34375-2.742187-1.164063-6.367187-3.347657-8.054687l-11.777343-9.105469c-2.183594-1.6875-2.183594-4.453125 0-6.144531l11.777343-9.105469c2.183594-1.6875 3.691407-5.3125 3.347657-8.058594l-1.851563-14.679687c-.34375-2.738282 1.617187-4.703125 4.359375-4.363282l14.824219 1.84375c2.742187.339844 6.375-1.160156 8.078125-3.335937zm0 0" fill="#ffc502"/><path d="m446.988281 9.132812c1.703125-2.175781 4.488281-2.175781 6.191407 0l9.144531 11.695313c1.703125 2.175781 5.339843 3.675781 8.082031 3.335937l14.820312-1.84375c2.742188-.339843 4.703126 1.625 4.359376 4.363282l-1.847657 14.679687c-.34375 2.742188 1.160157 6.367188 3.347657 8.058594l11.773437 9.105469c2.1875 1.6875 2.1875 4.453125 0 6.144531l-11.773437 9.105469c-2.1875 1.6875-3.691407 5.3125-3.347657 8.054687l1.847657 14.679688c.34375 2.742187-1.617188 4.707031-4.359376 4.367187l-14.820312-1.84375c-2.742188-.34375-6.378906 1.160156-8.082031 3.335938l-9.144531 11.695312c-1.703126 2.175782-4.488282 2.175782-6.191407 0l-9.148437-11.695312c-1.703125-2.175782-5.335938-3.679688-8.078125-3.335938l-14.824219 1.839844c-2.742188.34375-4.703125-1.621094-4.359375-4.363281l1.851563-14.679688c.34375-2.742187-1.164063-6.367187-3.347657-8.054687l-11.777343-9.105469c-2.183594-1.6875-2.183594-4.453125 0-6.144531l11.777343-9.105469c2.183594-1.6875 3.691407-5.3125 3.347657-8.058594l-1.851563-14.679687c-.34375-2.738282 1.617187-4.703125 4.359375-4.363282l14.824219 1.84375c2.742187.339844 6.375-1.160156 8.078125-3.335937zm0 0" fill="#ffc502"/><path d="m246.488281 359.613281h-32.703125c-4.144531 0-7.5 3.359375-7.5 7.5s3.355469 7.5 7.5 7.5h32.703125c4.140625 0 7.5-3.359375 7.5-7.5s-3.359375-7.5-7.5-7.5zm0 0"/><path d="m68.390625 224.382812h-14.144531c-4.140625 0-7.5 3.359376-7.5 7.5 0 4.144532 3.359375 7.5 7.5 7.5h14.144531c4.140625 0 7.5-3.355468 7.5-7.5 0-4.140624-3.359375-7.5-7.5-7.5zm0 0"/><path d="m68.390625 246.480469h-14.144531c-4.140625 0-7.5 3.355469-7.5 7.5 0 4.140625 3.359375 7.5 7.5 7.5h14.144531c4.140625 0 7.5-3.359375 7.5-7.5 0-4.144531-3.359375-7.5-7.5-7.5zm0 0"/><path d="m68.390625 268.578125h-14.144531c-4.140625 0-7.5 3.355469-7.5 7.5 0 4.140625 3.359375 7.5 7.5 7.5h14.144531c4.140625 0 7.5-3.359375 7.5-7.5 0-4.144531-3.359375-7.5-7.5-7.5zm0 0"/><path d="m68.390625 290.671875h-14.144531c-4.140625 0-7.5 3.359375-7.5 7.5 0 4.144531 3.359375 7.5 7.5 7.5h14.144531c4.140625 0 7.5-3.355469 7.5-7.5 0-4.140625-3.359375-7.5-7.5-7.5zm0 0"/><path d="m68.390625 312.769531h-14.144531c-4.140625 0-7.5 3.355469-7.5 7.5 0 4.140625 3.359375 7.5 7.5 7.5h14.144531c4.140625 0 7.5-3.359375 7.5-7.5 0-4.144531-3.359375-7.5-7.5-7.5zm0 0"/><path d="m146.609375 268.578125h-56.570313c-4.140624 0-7.5 3.355469-7.5 7.5 0 4.140625 3.359376 7.5 7.5 7.5h56.570313c4.144531 0 7.5-3.359375 7.5-7.5 0-4.144531-3.355469-7.5-7.5-7.5zm0 0"/><path d="m146.609375 290.671875h-56.570313c-4.140624 0-7.5 3.359375-7.5 7.5 0 4.144531 3.359376 7.5 7.5 7.5h56.570313c4.144531 0 7.5-3.355469 7.5-7.5 0-4.140625-3.355469-7.5-7.5-7.5zm0 0"/><path d="m146.609375 312.769531h-56.570313c-4.140624 0-7.5 3.355469-7.5 7.5 0 4.140625 3.359376 7.5 7.5 7.5h56.570313c4.144531 0 7.5-3.359375 7.5-7.5 0-4.144531-3.355469-7.5-7.5-7.5zm0 0"/><path d="m160.058594 202.664062h29.410156c4.140625 0 7.5-3.359374 7.5-7.5 0-4.140624-3.359375-7.5-7.5-7.5h-29.410156c-4.140625 0-7.5 3.359376-7.5 7.5 0 4.140626 3.359375 7.5 7.5 7.5zm0 0"/><path d="m199.816406 210.535156h-50.105468c-4.140626 0-7.5 3.359375-7.5 7.5 0 4.144532 3.359374 7.5 7.5 7.5h50.105468c4.140625 0 7.5-3.355468 7.5-7.5 0-4.140625-3.359375-7.5-7.5-7.5zm0 0"/><path d="m427.1875 175.164062h-117.632812c-11.945313 0-21.660157 9.714844-21.660157 21.660157 0 11.941406 9.714844 21.660156 21.660157 21.660156h117.632812c11.941406 0 21.660156-9.71875 21.660156-21.660156 0-11.945313-9.71875-21.660157-21.660156-21.660157zm0 28.320313h-117.632812c-3.671876 0-6.660157-2.988281-6.660157-6.660156s2.988281-6.660157 6.660157-6.660157h117.632812c3.671875 0 6.660156 2.988282 6.660156 6.660157s-2.988281 6.660156-6.660156 6.660156zm0 0"/><path d="m295.394531 131.347656h50.101563c4.140625 0 7.5-3.355468 7.5-7.5 0-4.140625-3.359375-7.5-7.5-7.5h-50.101563c-4.144531 0-7.5 3.359375-7.5 7.5 0 4.144532 3.355469 7.5 7.5 7.5zm0 0"/><path d="m295.394531 156.398438h96.9375c4.140625 0 7.5-3.355469 7.5-7.5 0-4.140626-3.359375-7.5-7.5-7.5h-96.9375c-4.144531 0-7.5 3.359374-7.5 7.5 0 4.144531 3.355469 7.5 7.5 7.5zm0 0"/><path d="m166.503906 54.261719h-11.980468c-4.144532 0-7.5 3.359375-7.5 7.5 0 4.144531 3.355468 7.5 7.5 7.5h11.980468c4.140625 0 7.5-3.355469 7.5-7.5 0-4.140625-3.359375-7.5-7.5-7.5zm0 0"/><path d="m507.449219 52.59375-11.703125-9.050781c-.238282-.277344-.527344-.96875-.554688-1.332031l1.835938-14.589844c.421875-3.351563-.558594-6.660156-2.691406-9.078125-2.433594-2.757813-6.203126-4.136719-10.035157-3.664063l-14.734375 1.832032c-.378906-.027344-1.101562-.324219-1.386718-.574219l-9.09375-11.625c-2.242188-2.867188-5.523438-4.511719-9.003907-4.511719s-6.761719 1.644531-9.003906 4.511719l-9.09375 11.625c-.285156.25-1.011719.546875-1.386719.574219l-14.734375-1.832032c-3.832031-.472656-7.601562.90625-10.035156 3.660156-2.132813 2.417969-3.113281 5.730469-2.691406 9.082032l1.023437 8.125h-271.058594c-7.136718 0-12.945312 5.808594-12.945312 12.945312v33.203125h-102.609375c-9.675781 0-17.546875 7.871094-17.546875 17.546875v276.820313c0 9.675781 7.871094 17.546875 17.546875 17.546875h154.507813v19.480468h-56.660157c-6.90625 0-12.527343 5.617188-12.527343 12.523438v13.171875c0 6.90625 5.621093 12.523437 12.527343 12.523437h46.605469c4.140625 0 7.5-3.355468 7.5-7.5 0-4.140624-3.359375-7.5-7.5-7.5h-44.132812v-8.21875h224.535156v8.21875h-144.402344c-4.140625 0-7.5 3.359376-7.5 7.5 0 4.144532 3.359375 7.5 7.5 7.5h146.878906c6.902344 0 12.519532-5.617187 12.519532-12.523437v-13.171875c0-6.90625-5.617188-12.523438-12.519532-12.523438h-56.664062v-19.480468h154.507812c9.675782 0 17.546875-7.871094 17.546875-17.546875v-114.78125h10.488281c7.136719 0 12.945313-5.808594 12.945313-12.945313v-140.289062l.601563.074218c3.832031.476563 7.597656-.90625 10.03125-3.664062 2.132812-2.417969 3.113281-5.726562 2.691406-9.082031l-1.835938-14.585938c.027344-.367187.316406-1.058593.554688-1.335937l11.703125-9.046875c2.894531-2.238281 4.550781-5.519531 4.550781-9.007813 0-3.484375-1.660156-6.765625-4.550781-9.003906zm-372.292969-1.847656h48.171875v22.550781h-48.171875zm0 110.203125.109375.015625c5.570313.691406 12.132813-2.015625 15.589844-6.441406l16.335937-20.882813 16.332032 20.886719c3.460937 4.421875 10.019531 7.132812 15.59375 6.4375l26.402343-3.28125-3.292969 26.160156c-.707031 5.59375 2.019532 12.15625 6.484376 15.605469l20.929687 16.183593-20.933594 16.1875c-4.210937 3.257813-6.871093 9.292969-6.5625 14.660157h-86.988281zm179.839844 100.53125v51.289062h-137.019532v-51.289062zm-41.78125 151.808593h-86.160156v-19.480468h86.160156zm172.054687-37.027343c0 1.382812-1.167969 2.546875-2.546875 2.546875h-425.175781c-1.382813 0-2.546875-1.164063-2.546875-2.546875v-276.816407c0-1.382812 1.164062-2.546874 2.546875-2.546874h102.609375v4.671874h-86.960938c-6.90625 0-12.523437 5.617188-12.523437 12.523438v228.304688c0 6.902343 5.617187 12.523437 12.523437 12.523437h393.878907c6.902343 0 12.523437-5.621094 12.523437-12.523437v-20.644532c0-4.140625-3.359375-7.5-7.5-7.5-4.144531 0-7.5 3.359375-7.5 7.5v18.167969h-388.925781v-223.351563h84.484375v13.238282h-62.894531c-5.796875 0-10.515625 4.71875-10.515625 10.515625v66.449219c0 5.796874 4.71875 10.511718 10.515625 10.511718h62.894531v7.097656h-30.117188c-4.140624 0-7.5 3.359376-7.5 7.5 0 4.144532 3.359376 7.5 7.5 7.5h30.117188v7.097657h-30.117188c-4.140624 0-7.5 3.359375-7.5 7.5s3.359376 7.5 7.5 7.5h72.933594v55.773437c0 5.796875 4.71875 10.515625 10.515625 10.515625h145.996094c5.796875 0 10.511719-4.71875 10.511719-10.515625v-55.773437h6.65625v55.773437c0 5.796875 4.71875 10.515625 10.515625 10.515625h57.609375c5.796875 0 10.511718-4.71875 10.511718-10.515625v-55.773437h9.308594v24.273437c0 4.144532 3.355469 7.5 7.5 7.5 4.140625 0 7.5-3.355468 7.5-7.5v-24.273437h5.671875zm-325.113281-231.453125v57.476562h-58.410156v-57.476562zm231.496094 167.960937v-51.289062h48.636718v51.289062zm117.050781-66.289062h-231.476563l-.113281-.875c-.011719-.507813.449219-1.609375.773438-1.921875l24.296875-18.785156c2.980468-2.308594 4.691406-5.683594 4.6875-9.269532 0-3.582031-1.707032-6.957031-4.6875-9.261718l-24.253906-18.75c-.371094-.351563-.828126-1.449219-.820313-1.902344l3.816406-30.328125c.46875-3.726563-.710937-7.320313-3.242187-9.851563-2.527344-2.535156-6.113282-3.722656-9.847656-3.257812l-30.515626 3.796875c-.546874.011719-1.65625-.457031-1.980468-.792969l-18.886719-24.144531c-2.308594-2.957031-5.6875-4.648438-9.261719-4.648438-.003906 0-.003906 0-.003906 0-3.574219 0-6.953125 1.691407-9.261719 4.648438l-18.851562 24.101562c-.359375.378907-1.472657.839844-1.949219.839844-.003906 0-.007812 0-.011719 0l-1.960937-.246094v-57.535156h204.847656c4.140625 0 7.5-3.359375 7.5-7.5s-3.359375-7.5-7.5-7.5h-141.671875v-22.550781h196.777344l-2.386719 1.847656c-2.894531 2.238281-4.550781 5.519531-4.550781 9.003906 0 3.488282 1.65625 6.769532 4.550781 9.007813l3.480469 2.691406h-18.199219c-4.140625 0-7.5 3.359375-7.5 7.5s3.359375 7.5 7.5 7.5h26.054688l-.917969 7.277344c-.417969 3.351562.5625 6.664062 2.695312 9.082031 2.429688 2.753906 6.203125 4.136719 10.03125 3.660156l14.734375-1.832031c.378906.027344 1.101563.324219 1.390625.574219l9.09375 11.625c2.242188 2.867187 5.523438 4.511718 9 4.511718 3.480469 0 6.761719-1.644531 9.003907-4.511718l9.09375-11.625c.117187-.101563.3125-.210938.523437-.304688zm17.796875-178.640625c-4.265625 3.296875-6.875 9.574218-6.203125 14.929687l1.269531 10.09375-10.234375-1.273437c-.5625-.070313-1.148437-.105469-1.730469-.105469-4.953124 0-10.25 2.519531-13.183593 6.265625l-6.335938 8.097656-6.335937-8.097656c-2.929688-3.746094-8.226563-6.265625-13.179688-6.265625-.585937 0-1.167968.039063-1.730468.105469l-10.238282 1.273437 1.273438-10.097656c.671875-5.347656-1.9375-11.625-6.203125-14.925781l-8.074219-6.242188 8.074219-6.242187c4.265625-3.296875 6.875-9.574219 6.203125-14.925781l-1.273438-10.09375 10.238282 1.273437c.5625.066406 1.144531.101563 1.730468.101563 4.953125 0 10.25-2.515626 13.179688-6.261719l6.335937-8.101563 6.335938 8.101563c2.933593 3.746093 8.230469 6.261719 13.183593 6.261719.582032 0 1.167969-.035157 1.730469-.101563l10.234375-1.273437-1.269531 10.09375c-.671875 5.351562 1.933594 11.628906 6.199219 14.925781l8.078125 6.242187zm0 0"/><path d="m437.160156 59.050781h25.84375c4.140625 0 7.5-3.359375 7.5-7.5 0-4.144531-3.359375-7.5-7.5-7.5h-25.84375c-4.140625 0-7.5 3.355469-7.5 7.5 0 4.140625 3.359375 7.5 7.5 7.5zm0 0"/><path d="m465.875 64.148438h-31.585938c-4.140624 0-7.5 3.355468-7.5 7.5 0 4.140624 3.359376 7.5 7.5 7.5h31.585938c4.140625 0 7.5-3.359376 7.5-7.5 0-4.144532-3.355469-7.5-7.5-7.5zm0 0"/></svg>